<svg width="18" height="18" viewBox="0 0 18 18" fill="none" xmlns="http://www.w3.org/2000/svg">
<path d="M3 15.75H15C15.4125 15.75 15.75 15.4125 15.75 15C15.75 14.5875 15.4125 14.25 15 14.25H3C2.5875 14.25 2.25 14.5875 2.25 15C2.25 15.4125 2.5875 15.75 3 15.75ZM7.5 12.75H15C15.4125 12.75 15.75 12.4125 15.75 12C15.75 11.5875 15.4125 11.25 15 11.25H7.5C7.0875 11.25 6.75 11.5875 6.75 12C6.75 12.4125 7.0875 12.75 7.5 12.75ZM3 9.75H15C15.4125 9.75 15.75 9.4125 15.75 9C15.75 8.5875 15.4125 8.25 15 8.25H3C2.5875 8.25 2.25 8.5875 2.25 9C2.25 9.4125 2.5875 9.75 3 9.75ZM7.5 6.75H15C15.4125 6.75 15.75 6.4125 15.75 6C15.75 5.5875 15.4125 5.25 15 5.25H7.5C7.0875 5.25 6.75 5.5875 6.75 6C6.75 6.4125 7.0875 6.75 7.5 6.75ZM2.25 3C2.25 3.4125 2.5875 3.75 3 3.75H15C15.4125 3.75 15.75 3.4125 15.75 3C15.75 2.5875 15.4125 2.25 15 2.25H3C2.5875 2.25 2.25 2.5875 2.25 3Z" fill="#045157"/>
</svg>
