<svg width="18" height="19" viewBox="0 0 18 19" fill="none" xmlns="http://www.w3.org/2000/svg">
<path d="M1 14.7083C0.447715 14.7083 0 15.156 0 15.7083V15.7917C0 16.344 0.447715 16.7917 1 16.7917H5C5.55228 16.7917 6 16.344 6 15.7917V15.7083C6 15.156 5.55228 14.7083 5 14.7083H1ZM1 2.20833C0.447716 2.20833 0 2.65605 0 3.20833V3.29167C0 3.84395 0.447715 4.29167 1 4.29167H9C9.55228 4.29167 10 3.84395 10 3.29167V3.20833C10 2.65605 9.55228 2.20833 9 2.20833H1ZM9 18.875C9.55228 18.875 10 18.4273 10 17.875V16.7917H17C17.5523 16.7917 18 16.344 18 15.7917V15.7083C18 15.156 17.5523 14.7083 17 14.7083H10V13.625C10 13.0727 9.55228 12.625 9 12.625V12.625C8.44772 12.625 8 13.0727 8 13.625V17.875C8 18.4273 8.44772 18.875 9 18.875V18.875ZM5 6.375C4.44772 6.375 4 6.82271 4 7.375V8.45833H1C0.447715 8.45833 0 8.90605 0 9.45833V9.54167C0 10.094 0.447715 10.5417 1 10.5417H4V11.625C4 12.1773 4.44772 12.625 5 12.625V12.625C5.55228 12.625 6 12.1773 6 11.625V7.375C6 6.82272 5.55228 6.375 5 6.375V6.375ZM17 10.5417C17.5523 10.5417 18 10.094 18 9.54167V9.45833C18 8.90605 17.5523 8.45833 17 8.45833H9C8.44772 8.45833 8 8.90605 8 9.45833V9.54167C8 10.094 8.44772 10.5417 9 10.5417H17ZM12 5.375C12 5.92728 12.4477 6.375 13 6.375V6.375C13.5523 6.375 14 5.92728 14 5.375V4.29167H17C17.5523 4.29167 18 3.84395 18 3.29167V3.20833C18 2.65605 17.5523 2.20833 17 2.20833H14V1.125C14 0.572716 13.5523 0.125 13 0.125V0.125C12.4477 0.125 12 0.572715 12 1.125V5.375Z" fill="#045157"/>
</svg>
